<?xml version="1.0" encoding="UTF-8" standalone="no"?>
<svg
   xmlns:dc="http://purl.org/dc/elements/1.1/"
   xmlns:cc="http://creativecommons.org/ns#"
   xmlns:rdf="http://www.w3.org/1999/02/22-rdf-syntax-ns#"
   xmlns:svg="http://www.w3.org/2000/svg"
   xmlns="http://www.w3.org/2000/svg"
   xmlns:xlink="http://www.w3.org/1999/xlink"
   width="42mm"
   height="42mm"
   viewBox="0 0 42.000001 42.000001"
   version="1.1"
   id="svg8">
  <defs
     id="defs2">
    <linearGradient
       id="linearGradient1228">
      <stop
         style="stop-color:#3e3e3e;stop-opacity:1;"
         offset="0"
         id="stop1224" />
      <stop
         style="stop-color:#ffffff;stop-opacity:1"
         offset="1"
         id="stop1226" />
    </linearGradient>
    <marker
       style="overflow:visible"
       id="Arrow1Lstart"
       refX="0"
       refY="0"
       orient="auto">
      <path
         transform="matrix(0.8,0,0,0.8,10,0)"
         style="fill-rule:evenodd;stroke:#000000;stroke-width:1pt"
         d="M 0,0 5,-5 -12.5,0 5,5 Z"
         id="path904" />
    </marker>
    <rect
       x="36.077866"
       y="137.24957"
       width="90.311127"
       height="53.857502"
       id="rect841" />
    <rect
       x="48.673203"
       y="71.042946"
       width="71.589851"
       height="40.607712"
       id="rect835" />
    <linearGradient
       xlink:href="#linearGradient1228"
       id="linearGradient1220"
       x1="96.455864"
       y1="100.39466"
       x2="58.361748"
       y2="94.103767"
       gradientUnits="userSpaceOnUse" />
    <linearGradient
       xlink:href="#linearGradient1228"
       id="linearGradient1222"
       x1="92.462555"
       y1="126.3698"
       x2="58.361744"
       y2="114.61476"
       gradientUnits="userSpaceOnUse" />
  </defs>
  <metadata
     id="metadata5">
    <rdf:RDF>
      <cc:Work
         rdf:about="">
        <dc:format>image/svg+xml</dc:format>
        <dc:type
           rdf:resource="http://purl.org/dc/dcmitype/StillImage" />
        <dc:title></dc:title>
      </cc:Work>
    </rdf:RDF>
  </metadata>
  <g
     id="layer1"
     transform="translate(-57.871042,-93.613066)">
    <path
       id="rect902"
       style="opacity:0.977;fill:#303440;fill-opacity:1;stroke:url(#linearGradient1220);stroke-width:0.982503;stroke-linecap:round;stroke-miterlimit:4;stroke-dasharray:none;stroke-opacity:1;paint-order:markers fill stroke"
       d="M 58.361748,94.103767 H 99.390141 V 114.61477 H 58.361748 Z" />
    <g
       aria-label="gd in"
       transform="translate(17.445668,26.480549)"
       id="text833"
       style="font-style:normal;font-variant:normal;font-weight:normal;font-stretch:normal;font-size:10.5833px;line-height:1.25;font-family:'Ubuntu Mono';-inkscape-font-specification:'Ubuntu Mono';white-space:pre;shape-inside:url(#rect835);fill:#ccced3;fill-opacity:1;stroke:none">
      <path
         d="m 52.33565,80.458849 q -0.148166,0.08467 -0.455082,0.179916 -0.306916,0.09525 -0.709081,0.09525 -0.433915,0 -0.814914,-0.137583 -0.370416,-0.148166 -0.656165,-0.433915 -0.275166,-0.296333 -0.444498,-0.740831 -0.15875,-0.455082 -0.15875,-1.068914 0,-0.539748 0.148166,-0.984246 0.15875,-0.455082 0.444499,-0.783165 0.296332,-0.328082 0.719664,-0.507998 0.423332,-0.190499 0.963081,-0.190499 0.634998,0 1.079496,0.09525 0.455082,0.08467 0.761998,0.169333 v 4.381486 q 0,1.142996 -0.582082,1.650995 -0.571498,0.507998 -1.735661,0.507998 -0.476248,0 -0.867831,-0.07408 -0.380998,-0.07408 -0.677331,-0.179916 l 0.15875,-0.772581 q 0.275166,0.116416 0.624414,0.1905 0.359833,0.07408 0.783165,0.07408 0.761997,0 1.09008,-0.306916 0.328082,-0.306916 0.328082,-0.99483 z m 0,-3.682988 q -0.127,-0.04233 -0.349249,-0.07408 -0.222249,-0.04233 -0.603248,-0.04233 -0.677331,0 -1.037164,0.465666 -0.349248,0.465665 -0.349248,1.238246 0,0.423332 0.09525,0.730247 0.105833,0.296333 0.275166,0.497415 0.179916,0.1905 0.402165,0.28575 0.22225,0.08467 0.476249,0.08467 0.328082,0 0.613831,-0.09525 0.296333,-0.09525 0.476249,-0.222249 z"
         style="font-style:normal;font-variant:normal;font-weight:normal;font-stretch:normal;font-size:10.5833px;line-height:1.25;font-family:'Ubuntu Mono';-inkscape-font-specification:'Ubuntu Mono';white-space:pre;shape-inside:url(#rect835);fill:#ccced3;fill-opacity:1;stroke:none"
         id="path1435" />
      <path
         d="m 57.6273,77.040443 q -0.148167,-0.137583 -0.433916,-0.253999 -0.285749,-0.127 -0.592664,-0.127 -0.349249,0 -0.603249,0.137583 -0.243415,0.137583 -0.402165,0.380999 -0.158749,0.232833 -0.232833,0.571498 -0.07408,0.328083 -0.07408,0.709081 0,0.857248 0.402166,1.322913 0.402165,0.465665 1.047746,0.465665 0.328083,0 0.550332,-0.03175 0.232833,-0.03175 0.338666,-0.0635 z m 0,-3.312573 0.878413,-0.148166 v 7.196644 q -0.285749,0.08467 -0.730247,0.169333 -0.444499,0.08467 -1.037164,0.08467 -0.529165,0 -0.96308,-0.179916 -0.433915,-0.179916 -0.740831,-0.507998 -0.306915,-0.338666 -0.476248,-0.814914 -0.169333,-0.476249 -0.169333,-1.068914 0,-0.571498 0.137583,-1.037163 0.148166,-0.476248 0.423332,-0.814914 0.275166,-0.338666 0.656164,-0.529165 0.391582,-0.190499 0.888998,-0.190499 0.391582,0 0.687914,0.09525 0.296332,0.09525 0.444499,0.201083 z"
         style="font-style:normal;font-variant:normal;font-weight:normal;font-stretch:normal;font-size:10.5833px;line-height:1.25;font-family:'Ubuntu Mono';-inkscape-font-specification:'Ubuntu Mono';white-space:pre;shape-inside:url(#rect835);fill:#ccced3;fill-opacity:1;stroke:none"
         id="path1437" />
      <path
         d="m 66.760687,75.241282 q -0.275166,0 -0.476248,-0.190499 -0.201083,-0.190499 -0.201083,-0.518582 0,-0.328082 0.201083,-0.518581 0.201082,-0.1905 0.476248,-0.1905 0.285749,0 0.476249,0.1905 0.201082,0.190499 0.201082,0.518581 0,0.328083 -0.201082,0.518582 -0.1905,0.190499 -0.476249,0.190499 z m -0.222249,1.492246 H 65.120276 V 76.00328 h 2.285992 v 3.01624 q 0,0.730248 0.201083,0.984247 0.201083,0.243416 0.603248,0.243416 0.306916,0 0.560915,-0.07408 0.264583,-0.07408 0.412749,-0.15875 l 0.126999,0.740831 q -0.0635,0.03175 -0.179916,0.08467 -0.116416,0.04233 -0.275165,0.08467 -0.148167,0.04233 -0.338666,0.07408 -0.179916,0.03175 -0.380999,0.03175 -0.465665,0 -0.772581,-0.126999 -0.306915,-0.127 -0.497415,-0.380999 -0.179916,-0.253999 -0.253999,-0.624415 -0.07408,-0.380999 -0.07408,-0.878414 z"
         style="fill:#ff7084;fill-opacity:1"
         id="path1439" />
      <path
         d="m 70.591842,76.140863 q 0.476248,-0.116417 0.941913,-0.179916 0.476249,-0.0635 0.888998,-0.0635 0.984246,0 1.481661,0.507998 0.507999,0.507999 0.507999,1.629828 v 2.878658 h -0.867831 v -2.719908 q 0,-0.476249 -0.08467,-0.772581 -0.08467,-0.296332 -0.243416,-0.455082 -0.148166,-0.169333 -0.370416,-0.232832 -0.211665,-0.0635 -0.465665,-0.0635 -0.211666,0 -0.455082,0.03175 -0.232832,0.02117 -0.455081,0.0635 v 4.148654 h -0.878414 z"
         style="fill:#ff7084;fill-opacity:1"
         id="path1441" />
    </g>
    <path
       id="rect892"
       style="opacity:0.977;fill:#1e1e1e;fill-opacity:1;stroke:url(#linearGradient1222);stroke-width:0.982503;stroke-linecap:round;stroke-miterlimit:4;stroke-dasharray:none;stroke-opacity:1;paint-order:markers fill stroke"
       d="m 58.361744,114.61476 h 41.028393 v 20.511 H 58.361744 Z" />
    <g
       aria-label="out cs"
       transform="translate(26.445181,-17.804866)"
       id="text839"
       style="font-style:normal;font-weight:normal;font-size:9.17222px;line-height:1.25;font-family:sans-serif;text-align:start;text-anchor:start;white-space:pre;shape-inside:url(#rect841);fill:#9cdcfe;fill-opacity:1;stroke:none">
      <path
         d="m 38.836957,140.92695 q -0.627007,0 -0.949468,0.48817 -0.322461,0.48817 -0.322461,1.44659 0,0.95395 0.322461,1.4466 0.322461,0.48817 0.949468,0.48817 0.631486,0 0.953947,-0.48817 0.32246,-0.49265 0.32246,-1.4466 0,-0.95842 -0.32246,-1.44659 -0.322461,-0.48817 -0.953947,-0.48817 z m 0,-0.69867 q 1.043519,0 1.59439,0.67628 0.555349,0.67627 0.555349,1.95715 0,1.28537 -0.550871,1.96164 -0.55087,0.6718 -1.598868,0.6718 -1.043519,0 -1.59439,-0.6718 -0.550871,-0.67627 -0.550871,-1.96164 0,-1.28088 0.550871,-1.95715 0.550871,-0.67628 1.59439,-0.67628 z"
         style="font-size:9.17222px;text-align:start;text-anchor:start;fill:#4ec9b0;fill-opacity:1"
         id="path1445" />
      <path
         d="m 42.46912,143.46633 v -3.10817 h 0.824067 v 3.10817 q 0,0.67627 0.237367,0.99425 0.241846,0.31799 0.743452,0.31799 0.582221,0 0.891246,-0.40756 0.309025,-0.41203 0.309025,-1.17788 v -2.83497 h 0.828545 v 5.00711 h -0.828545 v -0.75241 q -0.219453,0.43442 -0.600136,0.65835 -0.376204,0.22394 -0.882289,0.22394 -0.770323,0 -1.146527,-0.50161 -0.376205,-0.50608 -0.376205,-1.52721 z"
         style="font-size:9.17222px;text-align:start;text-anchor:start;fill:#4ec9b0;fill-opacity:1"
         id="path1447" />
      <path
         d="m 49.863328,138.92501 v 1.4242 h 1.872064 v 0.64044 h -1.872064 v 2.723 q 0,0.55535 0.210495,0.77481 0.210495,0.21945 0.734494,0.21945 h 0.927075 v 0.65836 h -1.00769 q -0.927075,0 -1.307758,-0.37173 -0.380683,-0.37173 -0.380683,-1.28089 v -2.723 h -1.339108 v -0.64044 h 1.339108 v -1.4242 z"
         style="font-size:9.17222px;text-align:start;text-anchor:start;fill:#4ec9b0;fill-opacity:1"
         id="path1449" />
      <path
         d="m 62.9006,145.10998 q -0.331418,0.19258 -0.685229,0.28664 -0.349333,0.0985 -0.71658,0.0985 -1.164442,0 -1.8228,-0.69867 -0.653879,-0.69867 -0.653879,-1.93477 0,-1.2361 0.653879,-1.93476 0.658358,-0.69867 1.8228,-0.69867 0.362768,0 0.707622,0.0941 0.344854,0.0941 0.694187,0.29111 v 0.86437 q -0.326939,-0.29111 -0.658358,-0.42099 -0.326939,-0.12988 -0.743451,-0.12988 -0.774802,0 -1.191314,0.50161 -0.416512,0.5016 -0.416512,1.43315 0,0.92708 0.416512,1.43316 0.420991,0.50161 1.191314,0.50161 0.429948,0 0.770323,-0.12988 0.340375,-0.13436 0.631486,-0.41203 z"
         style="font-style:normal;font-variant:normal;font-weight:normal;font-stretch:normal;font-size:9.17222px;font-family:monospace;-inkscape-font-specification:monospace;text-align:start;text-anchor:start;fill:#9cdcfe;fill-opacity:1"
         id="path1451" />
      <path
         d="m 68.024145,140.52387 v 0.80616 q -0.353811,-0.20602 -0.712101,-0.30903 -0.35829,-0.10301 -0.730016,-0.10301 -0.559827,0 -0.837502,0.18363 -0.273196,0.17914 -0.273196,0.55087 0,0.33589 0.206017,0.5016 0.206016,0.16571 1.025604,0.32246 l 0.331418,0.0627 q 0.613572,0.11645 0.927075,0.46578 0.317983,0.34933 0.317983,0.90916 0,0.74345 -0.528478,1.16444 -0.528477,0.41652 -1.468988,0.41652 -0.371726,0 -0.779281,-0.0806 -0.407554,-0.0761 -0.882288,-0.23289 v -0.85094 q 0.461298,0.23737 0.882288,0.35829 0.420991,0.11645 0.797195,0.11645 0.546392,0 0.84646,-0.21946 0.300068,-0.22393 0.300068,-0.62252 0,-0.57327 -1.097263,-0.79272 l -0.03583,-0.009 -0.309025,-0.0627 q -0.712101,-0.13884 -1.039041,-0.46577 -0.326939,-0.33142 -0.326939,-0.90021 0,-0.72106 0.48817,-1.1107 0.48817,-0.39412 1.392852,-0.39412 0.403076,0 0.774802,0.0761 0.371725,0.0717 0.730015,0.21945 z"
         style="font-style:normal;font-variant:normal;font-weight:normal;font-stretch:normal;font-size:9.17222px;font-family:monospace;-inkscape-font-specification:monospace;text-align:start;text-anchor:start;fill:#9cdcfe;fill-opacity:1"
         id="path1453" />
    </g>
  </g>
</svg>
